<?xml version="1.0" standalone="no"?>
<!DOCTYPE svg PUBLIC "-//W3C//DTD SVG 20010904//EN"
 "http://www.w3.org/TR/2001/REC-SVG-20010904/DTD/svg10.dtd">
<svg version="1.0" xmlns="http://www.w3.org/2000/svg"
 width="212.000000pt" height="238.000000pt" viewBox="0 0 212.000000 238.000000"
 preserveAspectRatio="xMidYMid meet">

<g transform="translate(0.000000,238.000000) scale(0.100000,-0.100000)"
fill="#000000" stroke="none">
<path d="M808 2334 c-239 -54 -387 -145 -534 -328 -152 -190 -240 -451 -251
-746 -9 -252 23 -441 110 -637 192 -435 578 -659 1032 -599 277 36 453 113
602 263 237 239 371 662 334 1050 -33 340 -153 633 -326 792 -144 133 -342
206 -620 230 -163 15 -179 13 -347 -25z m527 -38 c123 -32 280 -108 362 -176
260 -212 380 -618 317 -1072 -41 -299 -135 -521 -283 -669 -140 -140 -333
-216 -631 -249 -268 -30 -517 62 -703 260 -131 139 -214 295 -269 509 -27 101
-31 138 -35 293 -8 250 24 423 112 614 114 248 329 432 569 486 50 11 105 24
121 29 17 4 100 7 185 5 127 -3 173 -9 255 -30z"/>
<path d="M872 2109 c-133 -36 -175 -59 -263 -148 -116 -118 -186 -257 -237
-476 -23 -98 -26 -131 -27 -305 0 -205 6 -250 51 -394 85 -269 267 -461 494
-521 72 -19 256 -19 338 0 182 43 336 182 446 400 91 184 121 317 120 535 -1
120 -6 179 -23 260 -67 317 -176 504 -346 591 -99 51 -181 71 -328 78 -118 5
-137 4 -225 -20z m331 -25 c267 -60 431 -244 493 -554 25 -121 29 -336 10
-468 -55 -375 -196 -579 -466 -674 -71 -25 -243 -35 -322 -19 -243 51 -437
308 -493 651 -19 120 -19 328 0 446 43 264 174 486 338 570 113 59 301 79 440
48z"/>
</g>
</svg>
